Coordinates
version=1
nRows=26
nColumns=38
inDegrees=no

Units are S.I. units (second, meters, Newtons, ...)
If the header above contains a line with 'inDegrees', this indicates whether rotational values are in degrees (yes) or radians (no).

endheader
time	pelvis_tilt	pelvis_list	pelvis_rotation	pelvis_tx	pelvis_ty	pelvis_tz	hip_flexion_r	hip_adduction_r	hip_rotation_r	knee_angle_r	ankle_angle_r	subtalar_angle_r	mtp_angle_r	hip_flexion_l	hip_adduction_l	hip_rotation_l	knee_angle_l	ankle_angle_l	subtalar_angle_l	mtp_angle_l	lumbar_extension	lumbar_bending	lumbar_rotation	arm_flex_r	arm_add_r	arm_rot_r	elbow_flex_r	pro_sup_r	wrist_flex_r	wrist_dev_r	arm_flex_l	arm_add_l	arm_rot_l	elbow_flex_l	pro_sup_l	wrist_flex_l	wrist_dev_l
0	-0.15966	-0.014371	3.13186	-0.102206	0.984146	0.0513788	0.294378	-0.132851	-0.124244	0.950765	0.0307129	0	0	-0.168684	0.0986291	-0.0595082	0.166965	0.16861	0	0	-0.446738	-0.0270002	-0.129608	-0.156305	-0.479786	0.447722	1.05436	0.920426	0	0	0.536438	-0.494219	0.909023	1.89802	1.28364	0	0
0.00999209	-0.158798	-0.0137156	3.12991	-0.101602	0.983007	0.0517825	0.300784	-0.128039	-0.127929	0.909112	0.0265793	0	0	-0.178826	0.0992976	-0.0595581	0.165382	0.177566	0	0	-0.445757	-0.0242202	-0.129283	-0.165088	-0.48132	0.437963	1.04857	0.907158	0	0	0.544746	-0.49473	0.913814	1.89595	1.29795	0	0
0.0199842	-0.157882	-0.0130604	3.12795	-0.101002	0.981862	0.0521816	0.307165	-0.123174	-0.131587	0.867305	0.0223027	0	0	-0.188911	0.0999618	-0.0596139	0.163808	0.186492	0	0	-0.44473	-0.0214593	-0.128942	-0.173935	-0.482597	0.427708	1.04264	0.894258	0	0	0.553011	-0.495262	0.918654	1.89382	1.31229	0	0
0.0299763	-0.156828	-0.012392	3.12599	-0.100415	0.980706	0.0525673	0.313462	-0.118143	-0.135156	0.825075	0.0176851	0	0	-0.198845	0.100594	-0.0596975	0.162274	0.195362	0	0	-0.443585	-0.0186826	-0.128725	-0.182599	-0.483535	0.417119	1.03643	0.881753	0	0	0.560868	-0.495925	0.92326	1.89167	1.32686	0	0
0.0399684	-0.155518	-0.011676	3.12401	-0.0998482	0.979535	0.0529262	0.319588	-0.112764	-0.138519	0.782059	0.012522	0	0	-0.208489	0.101133	-0.0598483	0.160821	0.204145	0	0	-0.44221	-0.015809	-0.128998	-0.190438	-0.484221	0.407109	1.02969	0.869402	0	0	0.567613	-0.496948	0.926987	1.88961	1.34191	0	0
0.0499604	-0.153823	-0.0108413	3.12201	-0.0993075	0.978352	0.0532425	0.325408	-0.106774	-0.141483	0.737813	0.00663276	0	0	-0.217688	0.101473	-0.0601292	0.159496	0.212801	0	0	-0.44051	-0.0126968	-0.130266	-0.196518	-0.484906	0.399183	1.02213	0.856786	0	0	0.572314	-0.498616	0.928907	1.88785	1.35775	0	0
0.0599525	-0.15167	-0.0098613	3.12001	-0.0988028	0.977154	0.0535039	0.33083	-0.100054	-0.143945	0.692153	-2.96222e-05	0	0	-0.226359	0.10156	-0.0605767	0.158332	0.221302	0	0	-0.438409	-0.00929339	-0.13272	-0.20037	-0.485725	0.394195	1.0136	0.843686	0	0	0.574468	-0.501021	0.928586	1.8864	1.37435	0	0
0.0699446	-0.149035	-0.00873647	3.118	-0.0983464	0.975936	0.0537013	0.335799	-0.0925856	-0.145832	0.645126	-0.00735373	0	0	-0.23448	0.101368	-0.0612034	0.157354	0.229631	0	0	-0.435858	-0.00561311	-0.136292	-0.201905	-0.486716	0.392462	1.00408	0.830045	0	0	0.573957	-0.504089	0.926029	1.88506	1.39149	0	0
0.0799367	-0.145943	-0.00747878	3.11603	-0.0979505	0.974693	0.0538289	0.340282	-0.0844029	-0.147062	0.596979	-0.0150549	0	0	-0.24208	0.10089	-0.0620039	0.156594	0.237782	0	0	-0.432831	-0.00171606	-0.140682	-0.201352	-0.487833	0.393854	0.99361	0.815941	0	0	0.571008	-0.507595	0.921624	1.88345	1.40874	0	0
0.0899288	-0.142463	-0.00610201	3.11412	-0.0976261	0.973419	0.0538837	0.344249	-0.0755716	-0.147514	0.548127	-0.022688	0	0	-0.249226	0.100118	-0.0629588	0.1561	0.245759	0	0	-0.429335	0.00230771	-0.145403	-0.1992	-0.488964	0.397873	0.982323	0.801568	0	0	0.566154	-0.511181	0.916091	1.88105	1.42552	0	0
0.0999209	-0.13866	-0.00462333	3.11234	-0.097385	0.972111	0.0538642	0.347706	-0.0661787	-0.147025	0.499101	-0.0297045	0	0	-0.25597	0.0990413	-0.0640308	0.155941	0.253576	0	0	-0.425387	0.00639733	-0.15011	-0.195851	-0.490011	0.404088	0.970356	0.78717	0	0	0.559816	-0.514587	0.91001	1.87745	1.4413	0	0
0.109913	-0.1346	-0.0030607	3.11076	-0.0972389	0.970766	0.0537702	0.35067	-0.0563269	-0.145396	0.450518	-0.0355325	0	0	-0.262351	0.0976467	-0.0651644	0.156209	0.26125	0	0	-0.421017	0.0105176	-0.154599	-0.19162	-0.490893	0.412145	0.957856	0.772999	0	0	0.552305	-0.517641	0.903823	1.8723	1.45564	0	0
0.119905	-0.130354	-0.00143177	3.10948	-0.0971988	0.969385	0.0536028	0.353159	-0.0461328	-0.142416	0.40304	-0.0396677	0	0	-0.268402	0.0959147	-0.0662864	0.157012	0.268798	0	0	-0.416273	0.0146549	-0.158785	-0.186731	-0.491545	0.42178	0.944974	0.759272	0	0	0.543833	-0.520248	0.897842	1.86539	1.46815	0	0
0.129897	-0.126	0.00024604	3.1086	-0.0972749	0.967968	0.0533641	0.355184	-0.0357284	-0.137912	0.357364	-0.0417679	0	0	-0.27416	0.093823	-0.0673093	0.158467	0.276233	0	0	-0.411221	0.0188119	-0.162688	-0.181321	-0.491924	0.432804	0.931863	0.74614	0	0	0.534526	-0.522376	0.892253	1.85652	1.47857	0	0
0.139889	-0.12163	0.00195372	3.10821	-0.0974763	0.966521	0.0530572	0.356751	-0.0252656	-0.131808	0.31421	-0.041738	0	0	-0.279667	0.0913489	-0.0681327	0.160698	0.283553	0	0	-0.405953	0.0230043	-0.166419	-0.175447	-0.492001	0.445104	0.918679	0.733694	0	0	0.524422	-0.524046	0.887118	1.84563	1.48677	0	0
0.149881	-0.117351	0.0036687	3.10844	-0.0978112	0.965049	0.0526864	0.357875	-0.0149207	-0.124191	0.274329	-0.0397755	0	0	-0.284982	0.088473	-0.0686456	0.163821	0.290738	0	0	-0.400585	0.0272566	-0.170155	-0.169116	-0.49176	0.458576	0.905592	0.722059	0	0	0.513491	-0.525324	0.882389	1.83267	1.4927	0	0
0.159873	-0.11328	0.00536198	3.1094	-0.0982865	0.963561	0.0522565	0.358602	-0.00489474	-0.115365	0.238512	-0.0363599	0	0	-0.290171	0.0851829	-0.0687339	0.167949	0.297738	0	0	-0.395262	0.0316012	-0.17414	-0.162278	-0.491201	0.47314	0.892778	0.711389	0	0	0.501616	-0.526318	0.877893	1.8177	1.49639	0	0
0.169866	-0.10953	0.00699408	3.11117	-0.0989083	0.962066	0.0517725	0.359034	0.00459138	-0.105872	0.207594	-0.0321865	0	0	-0.295302	0.0814772	-0.0682902	0.173184	0.30447	0	0	-0.39014	0.0360757	-0.1787	-0.154801	-0.490341	0.488776	0.88042	0.701848	0	0	0.488566	-0.527195	0.87329	1.80088	1.49797	0	0
0.179858	-0.106249	0.00854156	3.11383	-0.0996813	0.960575	0.0512438	0.359298	0.0133336	-0.0964507	0.182419	-0.0280649	0	0	-0.300471	0.0773513	-0.0672469	0.179624	0.310825	0	0	-0.385389	0.0406877	-0.183914	-0.146757	-0.48919	0.505219	0.868737	0.693498	0	0	0.474377	-0.527964	0.868515	1.7822	1.49755	0	0
0.18985	-0.103608	0.0100047	3.1174	-0.100608	0.959098	0.0506853	0.359527	0.0211636	-0.0879476	0.163783	-0.0248031	0	0	-0.305808	0.0727917	-0.0655938	0.187363	0.316664	0	0	-0.381217	0.0454282	-0.189504	-0.138546	-0.487738	0.521763	0.858038	0.68641	0	0	0.459457	-0.528419	0.863891	1.76147	1.4952	0	0
0.199842	-0.101728	0.0113711	3.1219	-0.101691	0.957645	0.0501088	0.359915	0.0279288	-0.0811926	0.152347	-0.0231093	0	0	-0.311367	0.0677916	-0.0633675	0.196516	0.321813	0	0	-0.377717	0.0502541	-0.19528	-0.130417	-0.485987	0.537991	0.848502	0.680519	0	0	0.44408	-0.528396	0.8596	1.73851	1.49099	0	0
0.209834	-0.10069	0.0126263	3.1273	-0.102932	0.956227	0.049522	0.360657	0.0335154	-0.0768491	0.148529	-0.0235149	0	0	-0.317138	0.0623404	-0.0606629	0.207224	0.326062	0	0	-0.374946	0.055134	-0.201102	-0.122517	-0.483967	0.55363	0.840274	0.6757	0	0	0.428388	-0.527776	0.855669	1.71318	1.48496	0	0
0.219826	-0.100527	0.0137786	3.13355	-0.104328	0.954856	0.0489271	0.361767	0.0378994	-0.075127	0.152137	-0.02642	0	0	-0.323034	0.0563982	-0.0576389	0.219663	0.329165	0	0	-0.372931	0.0600641	-0.206843	-0.114935	-0.481718	0.568475	0.833467	0.671866	0	0	0.41244	-0.526459	0.852012	1.6854	1.47716	0	0
0.229818	-0.101235	0.014852	3.14055	-0.105875	0.953546	0.0483227	0.363113	0.0411301	-0.0758679	0.162475	-0.0319478	0	0	-0.328893	0.0499037	-0.0545059	0.234047	0.33083	0	0	-0.37167	0.0650551	-0.212359	-0.107722	-0.479283	0.582338	0.828162	0.668993	0	0	0.396247	-0.524346	0.848478	1.65508	1.46765	0	0
0.23981	-0.10277	0.0158745	3.1482	-0.10756	0.95231	0.0477039	0.364528	0.043295	-0.0787592	0.178591	-0.0397933	0	0	-0.334474	0.0427906	-0.0515085	0.250628	0.330727	0	0	-0.371131	0.0701137	-0.217487	-0.100912	-0.476705	0.595037	0.824405	0.667123	0	0	0.379807	-0.521336	0.844876	1.62217	1.45643	0	0
0.249802	-0.105045	0.0168703	3.15636	-0.109369	0.951163	0.0470638	0.365863	0.0445029	-0.0834491	0.199432	-0.0492315	0	0	-0.339457	0.0349962	-0.048909	0.269694	0.328485	0	0	-0.371251	0.0752313	-0.222043	-0.0945215	-0.474019	0.606405	0.822209	0.666359	0	0	0.363116	-0.517323	0.841008	1.58659	1.44348	0	0
